<?xml version="1.0" encoding="UTF-8" standalone="no"?>
<!-- Created with Inkscape (http://www.inkscape.org/) -->

<svg
   width="210mm"
   height="297mm"
   viewBox="0 0 210 297"
   version="1.1"
   id="svg1"
   inkscape:version="1.3.2 (091e20e, 2023-11-25, custom)"
   sodipodi:docname="Art.svg"
   xmlns:inkscape="http://www.inkscape.org/namespaces/inkscape"
   xmlns:sodipodi="http://sodipodi.sourceforge.net/DTD/sodipodi-0.dtd"
   xmlns="http://www.w3.org/2000/svg"
   xmlns:svg="http://www.w3.org/2000/svg">
  <sodipodi:namedview
     id="namedview1"
     pagecolor="#ffffff"
     bordercolor="#000000"
     borderopacity="0.25"
     inkscape:showpageshadow="2"
     inkscape:pageopacity="0.0"
     inkscape:pagecheckerboard="0"
     inkscape:deskcolor="#d1d1d1"
     inkscape:document-units="mm"
     inkscape:zoom="0.37104026"
     inkscape:cx="1503.8799"
     inkscape:cy="782.9339"
     inkscape:window-width="1920"
     inkscape:window-height="1009"
     inkscape:window-x="-8"
     inkscape:window-y="-8"
     inkscape:window-maximized="1"
     inkscape:current-layer="layer1" />
  <defs
     id="defs1" />
  <g
     inkscape:label="Layer 1"
     inkscape:groupmode="layer"
     id="layer1">
    <rect
       style="fill:#ffffff;fill-opacity:1;stroke:#8aa8b5;stroke-width:0.264999;stroke-opacity:0.964706"
       id="rect2"
       width="111.95438"
       height="177.55821"
       x="418.48169"
       y="58.85487"
       ry="2.1922033" />
    <rect
       style="fill:#800000;fill-opacity:1;stroke:#8aa8b5;stroke-width:0.25852;stroke-opacity:0.964706"
       id="rect3"
       width="108.89388"
       height="173.73186"
       x="420.18417"
       y="61.279922"
       ry="2.1449614" />
    <rect
       style="fill:#ffffff;fill-opacity:1;stroke:#8aa8b5;stroke-width:0.255066;stroke-opacity:0.964706"
       id="rect4"
       width="107.1255"
       height="171.91199"
       x="421.05273"
       y="61.88052"
       ry="2.1224923" />
    <rect
       style="fill:#ffffff;fill-opacity:1;stroke:#8aa8b5;stroke-width:0.264999;stroke-opacity:0.964706"
       id="rect2-4"
       width="111.95438"
       height="177.55821"
       x="566.34198"
       y="59.018497"
       ry="2.1922033" />
    <rect
       style="fill:#800000;fill-opacity:1;stroke:#8aa8b5;stroke-width:0.25852;stroke-opacity:0.964706"
       id="rect3-5"
       width="108.89388"
       height="173.73186"
       x="568.04443"
       y="61.443554"
       ry="2.1449614" />
    <rect
       style="fill:#ffffff;fill-opacity:1;stroke:#8aa8b5;stroke-width:0.255066;stroke-opacity:0.964706"
       id="rect4-8"
       width="107.1255"
       height="171.91199"
       x="568.91302"
       y="62.044147"
       ry="2.1224923" />
    <rect
       style="fill:#ffffff;fill-opacity:1;stroke:#8aa8b5;stroke-width:0.264999;stroke-opacity:0.964706"
       id="rect2-6"
       width="111.95438"
       height="177.55821"
       x="267.31497"
       y="58.060158"
       ry="2.1922033" />
    <rect
       style="fill:#800000;fill-opacity:1;stroke:#8aa8b5;stroke-width:0.25852;stroke-opacity:0.964706"
       id="rect3-2"
       width="108.89388"
       height="173.73186"
       x="269.01746"
       y="60.48521"
       ry="2.1449614" />
    <rect
       style="fill:#ffffff;fill-opacity:1;stroke:#8aa8b5;stroke-width:0.255066;stroke-opacity:0.964706"
       id="rect4-2"
       width="107.1255"
       height="171.91199"
       x="269.88602"
       y="61.085808"
       ry="2.1224923" />
    <path
       style="fill:#000000;fill-opacity:1;stroke:#8aa8b5;stroke-width:0.264999;stroke-opacity:0.964706"
       id="path4"
       d="m 304.55436,105.18379 c 0.55181,-1.08326 1.23179,-3.12613 2.50094,-3.49783 3.62869,-1.52019 7.54169,-2.282064 11.41757,-2.863629 4.22108,-0.211849 8.51588,0.457899 12.48714,1.895209 0.72626,0.4114 1.77416,0.89616 2.20538,1.69435 0.0517,0.0957 -0.0669,0.21653 -0.0454,0.32317 0.0634,0.31439 0.21191,0.60603 0.29512,0.91576 0.11036,0.41077 0.19005,0.82919 0.28506,1.24378 0.7044,3.32531 1.07149,6.73208 1.05879,10.13135 0,1.97444 -0.60908,3.42033 -1.4613,5.13235 -0.89334,1.59136 -2.2507,2.82761 -3.54782,4.08196 -1.59396,1.41574 -3.20032,2.81689 -4.76465,4.26555 -1.94421,1.60588 -3.34481,3.64775 -4.56676,5.8258 -1.01893,1.87272 -1.73767,3.87626 -2.36746,5.90616 -0.75795,1.9103 -1.03892,3.9433 -1.21743,5.97594 -0.18936,2.10089 -0.61883,4.16577 -0.98949,6.23929 -0.42058,2.42722 -0.55703,4.88832 -0.62973,7.34655 -0.0415,1.82763 -0.0318,3.65588 -0.029,5.48383 -0.0236,2.43692 -0.0458,4.85895 0.27641,7.27754 0.12851,0.51639 0.25702,1.03277 0.38553,1.54916 2.28981,8.17048 13.84461,4.93219 11.55477,-3.23829 v 0 c -0.0241,-0.0276 -0.0479,-0.0553 -0.0719,-0.0829 -0.3702,-1.80683 -0.0204,-3.69575 -0.14486,-5.52447 -0.003,-1.70606 -0.0122,-3.4124 0.0241,-5.11819 0.0524,-1.86695 0.13899,-3.73754 0.44773,-5.5828 0.43598,-2.44171 0.92329,-4.87643 1.13493,-7.35148 0.0904,-1.19113 0.23841,-2.3422 0.72959,-3.44915 0.37372,-1.23477 0.78809,-2.45649 1.38692,-3.60372 0.60708,-1.1113 1.18181,-2.07948 2.2344,-2.85257 1.62486,-1.50778 3.30862,-2.94916 4.94885,-4.43996 2.2979,-2.22217 4.52395,-4.54762 5.98382,-7.43209 1.65999,-3.42732 2.6639,-6.58747 2.68335,-10.44701 -0.0349,-4.44073 -0.45588,-8.88806 -1.47294,-13.21847 -0.59015,-2.045317 -0.86003,-3.439944 -1.93974,-5.312815 -2.05433,-3.563387 -4.76469,-5.498253 -8.48265,-7.085976 -0.88344,-0.294544 -1.75426,-0.630049 -2.6503,-0.883631 -5.02679,-1.422575 -10.35624,-1.980224 -15.55597,-1.526072 -4.75152,0.738659 -9.67462,1.632434 -14.09038,3.618595 -0.85836,0.386077 -1.65656,0.89395 -2.48484,1.340927 -0.73263,0.574127 -1.51563,1.089189 -2.19786,1.722379 -1.81454,1.684097 -3.03372,3.961143 -4.06297,6.174846 -3.79473,7.589467 6.93841,12.956027 10.73314,5.366567 z" />
    <circle
       id="path5"
       style="fill:#000000;stroke:#8aa8b5;stroke-width:0.264583"
       cx="322.70557"
       cy="204.71632"
       r="0.20180656" />
    <path
       style="fill:#000000;fill-opacity:1;stroke:#8aa8b5;stroke-width:0.264999;stroke-opacity:0.964706"
       id="path6"
       d="m 317.25311,205.7407 c 0.0333,0.055 0.0809,0.10366 0.1,0.1651 0.007,0.0231 -0.0483,-0.0186 -0.0609,-0.0392 -0.0961,-0.15688 -0.20526,-0.31098 -0.26098,-0.48631 -0.50329,-1.58317 -0.45482,-2.46384 0.33761,-4.28173 0.28723,-0.65888 0.92919,-1.09685 1.39377,-1.64528 2.82784,-1.97544 6.7755,-0.62756 7.83775,2.64153 0.30192,1.83401 -0.4431,2.97564 -1.79644,4.12625 7.30073,-4.32427 1.18528,-14.64906 -6.11545,-10.32479 v 0 c -0.49683,0.35764 -1.04452,0.65358 -1.4905,1.07294 -1.9345,1.81899 -2.68063,4.27051 -2.47084,6.86535 0.22468,1.15423 0.33819,2.22135 1.0528,3.24436 2.08061,2.97846 4.71932,3.97709 8.22611,3.01336 0.61727,-0.16964 1.14379,-0.57531 1.71569,-0.86296 0.67128,-0.69557 1.56353,-1.23133 2.01385,-2.0867 1.74945,-3.32299 0.93472,-6.16 -1.11202,-8.89826 -5.30071,-6.62589 -14.67114,0.87045 -9.37043,7.49634 z" />
    <path
       style="fill:#000000;fill-opacity:1;stroke:#8aa8b5;stroke-width:0.264999;stroke-opacity:0.964706"
       id="path7"
       d="m 455.4887,97.57816 c 0.41777,3.37867 0.69707,6.771 0.93543,10.16669 0.27871,4.22927 0.38896,8.46661 0.44291,12.70387 0.0303,3.24721 0.0228,6.49462 0.0201,9.74192 0.0302,4.17206 -0.003,8.34031 -0.14589,12.50977 -0.25477,4.76173 -0.23651,9.52236 -0.10149,14.28644 -0.0209,4.06525 0.40491,8.10185 0.77819,12.14316 0.28231,3.1314 0.31252,6.27564 0.6242,9.40411 0.19998,1.46128 0.29078,2.92951 0.32703,4.40261 0.0143,2.16738 -0.004,4.32788 0.20055,6.48737 0.19611,2.11837 0.5397,4.35953 2.08106,5.98243 0.59436,0.6258 1.35427,1.07029 2.03139,1.60544 2.61702,1.22459 5.4761,1.12179 8.29252,1.13037 2.16976,-0.10273 4.32781,-0.35044 6.49819,-0.44372 2.96582,-0.0192 5.92418,-0.16637 8.88471,-0.33209 2.6276,-0.0624 5.23856,-0.3528 7.85516,-0.5746 1.44931,-0.11713 2.90248,-0.16919 4.35597,-0.19135 1.06785,-0.0113 2.13582,-0.007 3.2037,-0.006 1.36025,0.0919 2.69214,-0.16492 4.02574,-0.38245 0.28094,-0.0424 0.56455,-0.0594 0.84776,-0.0778 8.46283,-0.61685 7.59047,-12.5851 -0.87236,-11.96825 v 0 c -0.65133,0.05 -1.30305,0.10134 -1.94808,0.20927 -1.22803,0.20722 -0.82618,0.2558 -2.03639,0.2192 -1.13593,-0.002 -2.2719,-0.006 -3.40778,0.007 -1.72984,0.0276 -3.45927,0.0916 -5.18398,0.23292 -2.50203,0.21283 -4.99756,0.49607 -7.51049,0.55032 -2.91571,0.16325 -5.82824,0.30405 -8.74921,0.32527 -1.9806,0.091 -3.95497,0.25656 -5.92974,0.43182 -0.69162,-0.002 -1.10088,1e-4 -1.79078,-0.0126 -0.56057,-0.0103 -2.77262,-0.33637 -0.57549,0.4666 0.41862,0.38723 0.89241,0.72225 1.25584,1.1617 0.26464,0.32002 0.43913,0.70833 0.60537,1.08888 0.17423,0.39888 0.24537,1.52193 0.0856,0.0839 -0.0249,-0.22503 -0.0505,-0.45002 -0.0757,-0.67502 -0.19291,-1.871 -0.0947,-3.74991 -0.14754,-5.62845 -0.0474,-1.77145 -0.14983,-3.5394 -0.38359,-5.29736 -0.31689,-3.09351 -0.30236,-6.20898 -0.61455,-9.3042 -0.35023,-3.78755 -0.76335,-7.56863 -0.73212,-11.37949 -0.12841,-4.5136 -0.14777,-9.02295 0.0993,-13.53441 0.14743,-4.30353 0.18423,-8.60597 0.15293,-12.9121 0.003,-3.30154 0.0103,-6.60318 -0.0212,-9.90462 -0.0575,-4.46721 -0.17577,-8.93445 -0.47157,-13.39311 -0.25993,-3.68141 -0.56724,-7.358487 -1.0264,-11.020926 -1.20002,-8.399999 -13.07941,-6.702943 -11.87939,1.697056 z" />
    <path
       style="fill:#000000;fill-opacity:1;stroke:#8aa8b5;stroke-width:0.264999;stroke-opacity:0.964706"
       id="path8"
       d="m 578.95299,119.55059 c 1.59969,2.9857 2.89094,6.1203 4.22262,9.23185 1.82184,4.56962 3.46217,9.20698 5.23893,13.79425 1.91291,5.13316 3.29176,10.44978 4.64267,15.75292 1.45508,5.48789 2.62078,11.05673 4.32094,16.47684 1.67261,4.40698 3.175,7.09401 9.49724,6.06774 2.3427,-0.38029 3.32605,-3.14103 4.16018,-4.90252 1.81073,-4.76452 2.72703,-9.79544 3.83908,-14.75159 1.07637,-5.02997 2.346,-10.01135 4.03553,-14.87119 0.16237,-0.41955 0.30369,-0.84787 0.48712,-1.25864 0.098,-0.21942 -0.0214,0.56388 -0.23013,0.68319 -1.66497,0.95231 -3.30674,2.24062 -5.21528,2.43143 -1.21831,0.1218 -2.09736,-1.46683 -3.31664,-1.57845 -0.46135,-0.0422 0.28988,0.8802 0.44763,1.31581 0.32451,0.89603 0.66601,1.78582 0.99901,2.67872 2.05036,6.02792 4.46804,11.9161 6.95645,17.77307 1.59801,3.82599 3.50502,7.50291 5.47598,11.14562 0.97131,1.54061 1.88634,3.18821 3.23588,4.44444 0.39566,0.3683 0.72122,0.96436 1.25865,1.02251 2.35696,0.25507 4.7408,-0.0778 7.1112,-0.11676 0.79783,-0.96917 1.70045,-1.86082 2.39342,-2.90753 0.57367,-0.8665 1.53752,-4.173 1.73448,-4.85231 1.1357,-3.91684 1.9794,-7.89829 2.82869,-11.88403 1.31638,-6.22092 2.51161,-12.47255 3.28435,-18.78678 0.32136,-2.62609 0.68265,-6.46907 0.94358,-9.13316 0.69414,-6.94157 0.8431,-13.91748 1.19306,-20.88037 0.0609,-2.01226 0.23191,-4.01818 0.39799,-6.02363 0.69831,-8.45649 -11.26099,-9.44405 -11.9593,-0.98756 v 0 c -0.17574,2.13381 -0.35457,4.26826 -0.42357,6.40898 -0.34026,6.77373 -0.48255,13.56018 -1.1511,20.31362 -0.23839,2.43726 -0.60081,6.28125 -0.89268,8.69571 -0.72715,6.01615 -1.87904,11.96966 -3.12965,17.89617 -0.65243,3.072 -0.97491,4.73132 -1.72815,7.74459 -0.46347,1.85415 -0.88191,3.31755 -1.4211,5.09501 -0.0657,0.21664 -0.40926,0.75386 -0.21037,0.64576 0.60962,-0.33132 1.03952,-0.91926 1.55929,-1.37888 2.13215,0.11734 4.27601,0.0995 6.39641,0.35204 0.21923,0.0261 0.32261,0.30226 0.47101,0.46577 0.019,0.0209 -0.0586,-0.0121 -0.078,-0.0326 -0.1166,-0.1236 -0.22455,-0.25579 -0.32409,-0.39351 -0.20714,-0.28657 -0.72879,-1.09857 -0.93604,-1.41824 -1.79176,-3.31112 -3.53621,-6.64759 -4.98552,-10.12738 -2.42094,-5.6977 -4.77282,-11.4255 -6.76383,-17.29098 -0.30634,-0.81429 -2.06786,-5.69815 -2.61835,-6.31773 -1.32625,-1.49269 -2.72248,-3.44678 -4.70154,-3.71198 -5.20927,-0.69805 -7.09686,2.41504 -8.42851,6.04216 -1.82494,5.28962 -3.24173,10.69775 -4.405,16.17088 -0.95914,4.27785 -1.7409,8.61828 -3.20661,12.76171 1.12448,0.5012 -3.44996,-1.5042 2.51788,-1.64614 2.10822,-0.0501 4.17917,0.73435 6.14947,1.486 0.67387,0.25707 1.00552,1.80075 0.54195,0.81988 -0.12777,-0.27035 -0.23231,-0.55109 -0.34846,-0.82664 -1.65981,-5.19495 -2.69999,-10.56734 -4.13491,-15.82508 -1.47283,-5.76646 -2.98204,-11.54498 -5.08048,-17.12124 -1.82726,-4.71707 -3.50554,-9.48923 -5.3967,-14.18139 -1.70476,-3.98318 -3.31851,-8.04273 -5.6547,-11.71033 -5.09119,-6.78823 -14.69118,0.41177 -9.60001,7.2 z" />
  </g>
</svg>
